<svg xmlns="http://www.w3.org/2000/svg" aria-hidden="true" style="position: absolute; width: 0; height: 0; overflow: hidden">
	<defs>
		<symbol id="sun" viewBox="0 0 24 24" fill="none">
			<circle cx="12" cy="12" r="6" stroke-width="1.5" />
			<path d="M12 2V3" stroke-width="1.5" stroke-linecap="round" />
			<path d="M12 21V22" stroke-width="1.5" stroke-linecap="round" />
			<path d="M22 12L21 12" stroke-width="1.5" stroke-linecap="round" />
			<path d="M3 12L2 12" stroke-width="1.5" stroke-linecap="round" />
			<path d="M19.0708 4.92969L18.678 5.32252" stroke-width="1.5" stroke-linecap="round" />
			<path d="M5.32178 18.6777L4.92894 19.0706" stroke-width="1.5" stroke-linecap="round" />
			<path d="M19.0708 19.0703L18.678 18.6775" stroke-width="1.5" stroke-linecap="round" />
			<path d="M5.32178 5.32227L4.92894 4.92943" stroke-width="1.5" stroke-linecap="round" />
		</symbol>

		<symbol id="moon" viewBox="0 0 24 24">
			<path
				d="M21.0672 11.8568L20.4253 11.469L21.0672 11.8568ZM12.1432 2.93276L11.7553 2.29085V2.29085L12.1432 2.93276ZM21.25 12C21.25 17.1086 17.1086 21.25 12 21.25V22.75C17.9371 22.75 22.75 17.9371 22.75 12H21.25ZM12 21.25C6.89137 21.25 2.75 17.1086 2.75 12H1.25C1.25 17.9371 6.06294 22.75 12 22.75V21.25ZM2.75 12C2.75 6.89137 6.89137 2.75 12 2.75V1.25C6.06294 1.25 1.25 6.06294 1.25 12H2.75ZM15.5 14.25C12.3244 14.25 9.75 11.6756 9.75 8.5H8.25C8.25 12.5041 11.4959 15.75 15.5 15.75V14.25ZM20.4253 11.469C19.4172 13.1373 17.5882 14.25 15.5 14.25V15.75C18.1349 15.75 20.4407 14.3439 21.7092 12.2447L20.4253 11.469ZM9.75 8.5C9.75 6.41182 10.8627 4.5828 12.531 3.57467L11.7553 2.29085C9.65609 3.5593 8.25 5.86509 8.25 8.5H9.75ZM12 2.75C11.9115 2.75 11.8077 2.71008 11.7324 2.63168C11.6686 2.56527 11.6538 2.50244 11.6503 2.47703C11.6461 2.44587 11.6482 2.35557 11.7553 2.29085L12.531 3.57467C13.0342 3.27065 13.196 2.71398 13.1368 2.27627C13.0754 1.82126 12.7166 1.25 12 1.25V2.75ZM21.7092 12.2447C21.6444 12.3518 21.5541 12.3539 21.523 12.3497C21.4976 12.3462 21.4347 12.3314 21.3683 12.2676C21.2899 12.1923 21.25 12.0885 21.25 12H22.75C22.75 11.2834 22.1787 10.9246 21.7237 10.8632C21.286 10.804 20.7293 10.9658 20.4253 11.469L21.7092 12.2447Z"
			/>
		</symbol>

		<symbol id="system" viewBox="0 0 24 24" fill="none">
			<path
				d="M2 10C2 6.22876 2 4.34315 3.17157 3.17157C4.34315 2 6.22876 2 10 2H14C17.7712 2 19.6569 2 20.8284 3.17157C22 4.34315 22 6.22876 22 10V11C22 13.8284 22 15.2426 21.1213 16.1213C20.2426 17 18.8284 17 16 17H8C5.17157 17 3.75736 17 2.87868 16.1213C2 15.2426 2 13.8284 2 11V10Z"
				stroke-width="1.5"
			/>
			<path d="M16 22H8" stroke-width="1.5" stroke-linecap="round" />
			<path d="M12 17L12 22" stroke-width="1.5" stroke-linecap="round" />
			<path d="M22 13H2" stroke-width="1.5" stroke-linecap="round" />
		</symbol>

		<symbol id="arrow-up" viewBox="0 0 24 24" fill="none">
			<path d="M12 20L12 4M12 4L18 10M12 4L6 10" stroke-width="1.5" stroke-linecap="round" stroke-linejoin="round" />
		</symbol>

		<symbol id="heart-outline" viewBox="0 0 24 24" stroke-width="1.5">
			<path
				stroke-linecap="round"
				stroke-linejoin="round"
				d="M21 8.25c0-2.485-2.099-4.5-4.688-4.5-1.935 0-3.597 1.126-4.312 2.733-.715-1.607-2.377-2.733-4.313-2.733C5.1 3.75 3 5.765 3 8.25c0 7.22 9 12 9 12s9-4.78 9-12Z"
			/>
		</symbol>

		<symbol id="heart-solid" viewBox="0 0 24 24">
			<path
				d="m11.645 20.91-.007-.003-.022-.012a15.247 15.247 0 0 1-.383-.218 25.18 25.18 0 0 1-4.244-3.17C4.688 15.36 2.25 12.174 2.25 8.25 2.25 5.322 4.714 3 7.688 3A5.5 5.5 0 0 1 12 5.052 5.5 5.5 0 0 1 16.313 3c2.973 0 5.437 2.322 5.437 5.25 0 3.925-2.438 7.111-4.739 9.256a25.175 25.175 0 0 1-4.244 3.17 15.247 15.247 0 0 1-.383.219l-.022.012-.007.004-.003.001a.752.752 0 0 1-.704 0l-.003-.001Z"
			/>
		</symbol>

		<symbol id="no-image" viewBox="0 0 24 24" fill="none" xmlns="http://www.w3.org/2000/svg">
			<path
				d="M22 12C22 16.714 22 19.0711 20.5355 20.5355C19.0711 22 16.714 22 12 22C7.28595 22 4.92893 22 3.46447 20.5355C2 19.0711 2 16.714 2 12C2 7.28595 2 4.92893 3.46447 3.46447C4.92893 2 7.28595 2 12 2"
				stroke-width="1.5"
				stroke-linecap="round"
			/>
			<path
				d="M2 12.5001L3.75159 10.9675C4.66286 10.1702 6.03628 10.2159 6.89249 11.0721L11.1822 15.3618C11.8694 16.0491 12.9512 16.1428 13.7464 15.5839L14.0446 15.3744C15.1888 14.5702 16.7369 14.6634 17.7765 15.599L21 18.5001"
				stroke-width="1.5"
				stroke-linecap="round"
			/>
			<path d="M22 2.00002L16 8M16 2L21.9999 7.99998" stroke-width="1.5" stroke-linecap="round" />
		</symbol>
	</defs>
</svg>
